<svg width="288" height="62" viewBox="0 0 288 62" fill="none" xmlns="http://www.w3.org/2000/svg">
<path d="M13.339 41.3822C19.8423 41.3822 22.379 37.3926 22.379 30.5667C22.379 23.7423 19.4124 18.9839 13.5295 18.9839H6.93627V41.3822H13.339ZM0 13.0248H14.3908C23.5254 13.0248 29.4083 20.4265 29.4083 30.5667C29.4083 36.1415 27.5424 41.0454 23.9553 44.0731C21.4201 46.1866 18.1196 47.3889 13.8162 47.3889H0V13.0248ZM49.2186 35.0862C49.2186 30.2787 46.9715 27.0105 43.0018 27.0105C38.9834 27.0105 36.782 30.2787 36.782 35.0862C36.782 39.892 38.9834 43.1113 43.0018 43.1113C46.9715 43.1113 49.2186 39.892 49.2186 35.0862ZM30.1827 35.0862C30.1827 27.7319 35.3963 22.0606 43.0018 22.0606C50.6058 22.0606 55.8194 27.7319 55.8194 35.0862C55.8194 42.4375 50.6058 48.1101 43.0018 48.1101C35.3948 48.1101 30.1812 42.439 30.1812 35.0862M56.8942 35.0862C56.8942 27.7319 61.6779 22.0606 69.1386 22.0606C75.5017 22.0606 79.4226 25.7623 80.2839 31.0966H73.9223C73.4924 28.9341 71.8186 27.2985 69.4267 27.2985C65.5043 27.2985 63.4966 30.3278 63.4966 35.0862C63.4966 39.7481 65.361 42.8724 69.3307 42.8724C71.9618 42.8724 73.8278 41.4787 74.2577 38.6914H80.5233C80.0933 43.9292 76.0261 48.1101 69.474 48.1101C61.7267 48.1101 56.8942 42.439 56.8942 35.0862ZM97.4599 47.3903V44.5065H97.3166C95.6427 46.7655 93.7296 48.0627 90.2858 48.0627C84.8329 48.0627 81.7717 44.5556 81.7717 39.1708V22.733H88.2278V38.065C88.2278 40.9488 89.5206 42.5355 92.2935 42.5355C95.3546 42.5355 97.2206 40.229 97.2206 36.9608V22.733H103.725V47.3903H97.4599ZM135.418 47.3903H141.92V22.733H135.418V47.3903ZM135.418 19.2871H141.92V13.1763H135.418V19.2871ZM161.79 33.9789C161.79 30.3753 159.877 27.2999 155.955 27.2999C152.654 27.2999 150.454 29.8943 150.454 34.0279C150.454 38.209 152.654 40.661 156.003 40.661C160.117 40.661 161.79 37.6331 161.79 33.9804M144.619 48.1101H151.073C151.601 49.6479 152.987 50.85 156 50.85C159.684 50.85 161.454 49.072 161.454 45.7072V43.0149H161.31C159.874 44.649 158.01 45.8987 154.9 45.8987C149.448 45.8987 144.092 41.5737 144.092 34.1244C144.092 26.7701 148.491 22.0606 154.709 22.0606C157.771 22.0606 160.018 23.2614 161.501 25.329H161.597V22.733H167.862V45.5143C167.862 48.9755 166.761 51.3294 164.945 53.0126C162.887 54.9346 159.731 55.7999 156.097 55.7999C149.4 55.7999 145.287 52.9161 144.617 48.1101M177.015 26.0978H177.158C178.833 23.4544 181.081 22.0606 184.429 22.0606C189.499 22.0606 192.894 25.9047 192.894 31.288V47.3889H186.389V32.2498C186.389 29.6065 184.858 27.7319 182.132 27.7319C179.262 27.7319 177.158 30.0383 177.158 33.403V47.3889H170.653V22.733H177.015V26.0978ZM120.594 26.6736C115.523 25.5709 113.132 24.7531 113.132 21.9642C113.132 19.5138 115.57 17.9271 119.302 17.9271C122.707 17.9271 125.309 19.5322 125.843 22.733H132.513C131.835 16.0602 126.906 12.3999 119.349 12.3999C111.746 12.3999 106.244 15.9086 106.244 22.6855C106.244 29.8469 111.84 31.481 117.963 32.8747C123.176 34.077 126.429 34.7493 126.429 38.1124C126.429 41.2858 123.32 42.5355 119.781 42.5355C114.903 42.5355 112.559 40.9013 112.079 36.7678H105.288C105.527 44.0256 110.788 48.1577 120.067 48.1577C127.768 48.1577 133.364 44.266 133.364 37.2962C133.364 29.8943 127.624 28.2128 120.594 26.6736Z" fill="#050038"/>
</svg>
