<svg width="20" height="20" viewBox="0 0 20 20" fill="none" xmlns="http://www.w3.org/2000/svg">
<path d="M17.0002 0H3C1 0 0 1 0 3L0.000590086 17C0.000590086 19 1.00021 20 3.00021 20H17.0002C19.0002 20 20.0002 19 20.0002 17V3C20.0002 1 19.0002 0 17.0002 0ZM6.66687 15.8334H4.16687V6.66667H6.66687V15.8334ZM5.41687 5.61C4.61187 5.61 3.95854 4.95167 3.95854 4.14C3.95854 3.32833 4.61187 2.67 5.41687 2.67C6.22187 2.67 6.87521 3.32833 6.87521 4.14C6.87521 4.95167 6.22271 5.61 5.41687 5.61ZM16.6669 15.8334H14.1669V11.1634C14.1669 8.35668 10.8335 8.56918 10.8335 11.1634V15.8334H8.3335V6.66667H10.8335V8.13748C11.9969 5.9825 16.6669 5.82334 16.6669 10.2009V15.8334Z" fill="white"/>
</svg>
