<svg width="24" height="16" viewBox="0 0 24 16" fill="none" xmlns="http://www.w3.org/2000/svg">
<path d="M22.9991 5.70998C23.0485 4.27864 22.7355 2.858 22.0891 1.57998C21.6505 1.05558 21.0418 0.701693 20.3691 0.579983C17.5866 0.327513 14.7926 0.224033 11.9991 0.269983C9.2157 0.221943 6.43176 0.322084 3.65905 0.569984C3.11087 0.669704 2.60357 0.926834 2.19905 1.30998C1.29905 2.13998 1.19905 3.55998 1.09905 4.75998C0.953962 6.9175 0.953962 9.0824 1.09905 11.24C1.12798 11.9154 1.22854 12.5858 1.39905 13.24C1.51963 13.745 1.76357 14.2123 2.10905 14.6C2.51632 15.0034 3.03543 15.2752 3.59905 15.38C5.75497 15.6461 7.92727 15.7564 10.0991 15.71C13.5991 15.76 16.669 15.71 20.299 15.43C20.8765 15.3316 21.4102 15.0595 21.8291 14.65C22.109 14.3699 22.3181 14.0271 22.4391 13.65C22.7967 12.5526 22.9723 11.4041 22.959 10.25C22.9991 9.69 22.9991 6.31 22.9991 5.70998ZM9.73905 10.85V4.65998L15.659 7.77C13.9991 8.69 11.809 9.73 9.73905 10.85Z" fill="white"/>
</svg>
